<svg width="221" height="60" viewBox="0 0 221 60" fill="none" xmlns="http://www.w3.org/2000/svg">
<path fill-rule="evenodd" clip-rule="evenodd" d="M5.36475 21.3461C3.65727 16.4691 4.16477 7.15504 6.3948 2.44604C7.67895 -0.265299 9.38887 0.593038 8.4353 3.47029C7.3727 6.67708 7.47227 15.2835 8.6236 19.7287C9.7457 24.0611 10.8617 26.6725 10.9586 25.1924C11.3867 18.6498 15.3945 11.9471 19.8173 10.3764C21.9794 9.6086 22.3567 11.066 20.3027 12.2518C14.4787 15.6138 12.847 26.9553 16.8384 36.3319C17.952 38.948 22.4622 47.2811 23.9027 49.3844L25.4569 51.6532L26.7646 47.6535C28.0869 43.6096 30.1948 38.844 30.6593 38.8488C30.798 38.8502 31.3355 39.4326 31.8533 40.1431L32.7948 41.4347L31.9289 43.5965C30.7228 46.6075 29.5972 50.3279 28.5953 54.6155C27.6071 58.8444 27.3561 59.2308 25.5972 59.2308C24.1807 59.2308 24.0456 59.0747 21.2467 54.2024C16.3859 45.7416 15.5879 44.1727 14.3101 43.3412C13.8611 43.049 13.3528 42.8479 12.5882 42.4708C5.17522 38.814 0.20522 32.5289 0.0772949 26.6488C0.00396991 23.2777 1.13115 23.3408 2.05042 26.7593C3.34752 31.5826 6.3206 35.5326 10.1004 37.4541C12.7282 38.7901 12.7536 38.7639 11.3835 36.1374C9.98755 33.4607 6.50697 25.3616 6.23905 24.1655C6.12845 23.6725 5.73505 22.4039 5.36475 21.3461ZM59.8918 4.09177C59.6634 2.85175 59.574 1.59996 59.6933 1.30982C60.0232 0.506894 61.0403 1.06904 61.7265 2.43362C65.7354 10.406 64.3238 20.6586 57.1947 35.3476C55.6206 38.591 55.6437 38.767 57.5225 37.8595C61.3194 36.0255 64.7094 31.6287 66.0997 26.7343C67.2122 22.8184 68.7914 23.4293 68.1072 27.5107C67.1378 33.2911 62.3316 39.1839 56.201 42.1082C54.1098 43.1056 52.8356 43.988 52.3433 44.7796C51.0517 46.8561 47.5179 52.8072 46.1602 55.1923C43.9577 59.0614 43.7998 59.2308 42.3925 59.2308C40.6819 59.2308 40.3933 58.8197 39.5563 55.1923C36.2416 40.8258 31.5726 32.5583 25.0178 29.4484C23.6045 28.7779 23.4517 27.9804 24.6935 27.7554C25.8581 27.5444 29.582 29.5331 31.8846 31.5955L34.0308 33.5178L36.4521 31.4239C39.9378 28.4095 43.6667 26.893 44.1637 28.2878C44.2428 28.5095 43.183 29.3706 41.8087 30.2013C40.4344 31.032 38.56 32.6197 37.6433 33.7295L35.9766 35.7474L38.0497 39.7006C39.9738 43.3696 40.4831 44.6822 41.9636 49.7889L42.5157 51.6933L44.1036 49.4043C54.8526 33.9088 56.5554 19.7834 48.518 12.7851C45.6273 10.2683 45.9222 9.18752 49.0733 10.7489C53.3148 12.8507 57.0377 19.3638 57.0652 24.7304C57.0736 26.3963 57.5846 25.6113 58.8924 21.9231C60.7708 16.6257 61.1044 10.6744 59.8918 4.09177ZM97.1406 18.25L92.625 34.125L91.9989 36.8259L91.5469 33.8125L87.9531 18.25H84.9531L90.4688 41H91.0312H92.625H93.2031L98.0625 24.4219L98.4197 22.6801L98.7812 24.4219L103.469 41H104.047H105.641H106.203L111.703 18.25H108.688L105.172 33.7969L104.688 36.8924L104.047 34.125L99.6562 18.25H99.3281H97.5H97.1406ZM118.281 41V18.25H115.266V41H118.281ZM137.562 41V38.5469H126.781V18.25H123.766V41H126.188H126.781H137.562ZM144.031 41H147.172C148.755 41 150.177 40.7552 151.438 40.2656C152.708 39.7656 153.792 39.0521 154.688 38.125C155.594 37.1979 156.286 36.0781 156.766 34.7656C157.245 33.4427 157.484 31.9583 157.484 30.3125V28.9531C157.484 27.3073 157.245 25.8281 156.766 24.5156C156.286 23.1927 155.599 22.0677 154.703 21.1406C153.818 20.2031 152.76 19.4896 151.531 19C150.302 18.5 148.943 18.25 147.453 18.25H144.031H142.328H141.016V41H142.422H144.031ZM144.031 38.5469H147.172C148.797 38.5469 150.151 38.2083 151.234 37.5313C152.318 36.8438 153.13 35.8854 153.672 34.6563C154.224 33.4167 154.5 31.9688 154.5 30.3125V28.9219C154.5 27.6198 154.344 26.4635 154.031 25.4531C153.719 24.4323 153.26 23.5729 152.656 22.875C152.052 22.1667 151.312 21.6302 150.438 21.2656C149.573 20.901 148.578 20.7188 147.453 20.7188H144.031V38.5469ZM175.812 41V38.5469H165.031V18.25H162.016V41H164.438H165.031H175.812ZM182.5 41V18.25H179.484V41H182.5ZM191 28.4844V20.7188H202.078V18.25H191H190.344H187.984V41H191V30.9531H200.531V28.4844H191ZM220.125 41V38.5469H208.688V30.4844H218.531V28.0312H208.688V20.7188H219.969V18.25H208.688H208.078H205.672V41H208.078H208.688H220.125Z" fill="#F7F7F7"/>
</svg>
